<svg width="23" height="23" viewBox="0 0 23 23" fill="none" xmlns="http://www.w3.org/2000/svg">
<path d="M11.5 5.69142C8.28566 5.69142 5.69152 8.28556 5.69152 11.4999C5.69152 14.7143 8.28566 17.3084 11.5 17.3084C14.7144 17.3084 17.3085 14.7143 17.3085 11.4999C17.3085 8.28556 14.7144 5.69142 11.5 5.69142ZM11.5 15.275C9.4213 15.275 7.72491 13.5786 7.72491 11.4999C7.72491 9.4212 9.4213 7.72482 11.5 7.72482C13.5787 7.72482 15.2751 9.4212 15.2751 11.4999C15.2751 13.5786 13.5787 15.275 11.5 15.275ZM17.5464 4.09982C16.7959 4.09982 16.1899 4.70587 16.1899 5.45636C16.1899 6.20685 16.7959 6.8129 17.5464 6.8129C18.2969 6.8129 18.9029 6.20968 18.9029 5.45636C18.9032 5.27815 18.8682 5.10165 18.8001 4.93697C18.732 4.77228 18.6321 4.62265 18.5061 4.49664C18.3801 4.37063 18.2305 4.27072 18.0658 4.20262C17.9011 4.13453 17.7246 4.09959 17.5464 4.09982ZM22.8225 11.4999C22.8225 9.93663 22.8366 8.38751 22.7488 6.82706C22.661 5.01456 22.2476 3.40597 20.9222 2.08058C19.594 0.752356 17.9882 0.341711 16.1757 0.253918C14.6124 0.166126 13.0633 0.180286 11.5028 0.180286C9.93956 0.180286 8.39044 0.166126 6.82999 0.253918C5.01749 0.341711 3.4089 0.755188 2.08351 2.08058C0.755286 3.4088 0.344641 5.01456 0.256848 6.82706C0.169055 8.39034 0.183215 9.93947 0.183215 11.4999C0.183215 13.0604 0.169055 14.6123 0.256848 16.1728C0.344641 17.9853 0.758118 19.5939 2.08351 20.9193C3.41173 22.2475 5.01749 22.6581 6.82999 22.7459C8.39327 22.8337 9.94239 22.8195 11.5028 22.8195C13.0661 22.8195 14.6152 22.8337 16.1757 22.7459C17.9882 22.6581 19.5968 22.2446 20.9222 20.9193C22.2504 19.591 22.661 17.9853 22.7488 16.1728C22.8395 14.6123 22.8225 13.0632 22.8225 11.4999ZM20.3303 18.1778C20.1235 18.6933 19.8743 19.0784 19.475 19.4749C19.0757 19.8742 18.6934 20.1234 18.1779 20.3302C16.6883 20.9221 13.1511 20.789 11.5 20.789C9.84894 20.789 6.3089 20.9221 4.81925 20.333C4.30382 20.1263 3.91866 19.8771 3.52218 19.4777C3.12286 19.0784 2.87365 18.6961 2.66691 18.1807C2.07784 16.6882 2.21095 13.151 2.21095 11.4999C2.21095 9.84884 2.07784 6.3088 2.66691 4.81915C2.87365 4.30372 3.12286 3.91857 3.52218 3.52208C3.9215 3.1256 4.30382 2.87355 4.81925 2.66681C6.3089 2.07775 9.84894 2.21085 11.5 2.21085C13.1511 2.21085 16.6911 2.07775 18.1808 2.66681C18.6962 2.87355 19.0814 3.12277 19.4778 3.52208C19.8772 3.9214 20.1264 4.30372 20.3331 4.81915C20.9222 6.3088 20.7891 9.84884 20.7891 11.4999C20.7891 13.151 20.9222 16.6882 20.3303 18.1778Z" fill="#E8CF36"/>
</svg>
