<svg width="28" height="23" viewBox="0 0 28 23" fill="none" xmlns="http://www.w3.org/2000/svg">
<path d="M27.5686 2.96549C26.5597 3.41258 25.4758 3.71466 24.3363 3.8512C25.512 3.1477 26.3916 2.04047 26.811 0.736117C25.7064 1.39223 24.4975 1.85406 23.2367 2.10153C22.389 1.19633 21.266 0.596345 20.0423 0.394732C18.8186 0.193119 17.5625 0.401157 16.4692 0.986548C15.3758 1.57194 14.5063 2.50193 13.9956 3.63213C13.4849 4.76234 13.3617 6.02952 13.645 7.23695C11.4068 7.12457 9.21721 6.54282 7.21838 5.52946C5.21955 4.5161 3.45614 3.09377 2.04258 1.35478C1.55924 2.18853 1.28133 3.1552 1.28133 4.1847C1.28079 5.11149 1.50902 6.02408 1.94576 6.8415C2.38251 7.65893 3.01427 8.35591 3.78499 8.87062C2.89116 8.84218 2.01705 8.60066 1.23541 8.16616V8.23866C1.23532 9.53851 1.68495 10.7984 2.50801 11.8044C3.33106 12.8105 4.47685 13.5009 5.75095 13.7583C4.92177 13.9827 4.05244 14.0158 3.20862 13.855C3.56809 14.9734 4.26832 15.9515 5.21127 16.6522C6.15422 17.3529 7.29269 17.7412 8.46729 17.7627C6.47333 19.328 4.01082 20.1771 1.47587 20.1734C1.02683 20.1735 0.578169 20.1473 0.132202 20.0948C2.70532 21.7492 5.70061 22.6273 8.7597 22.6239C19.1151 22.6239 24.7762 14.0471 24.7762 6.60862C24.7762 6.36695 24.7701 6.12287 24.7592 5.8812C25.8604 5.08488 26.8109 4.09878 27.5662 2.96912L27.5686 2.96549Z" fill="#E8CF36"/>
</svg>
